<?xml version="1.0" encoding="UTF-8"?>
<svg width="145px" height="50px" viewBox="0 0 145 50" version="1.1" xmlns="http://www.w3.org/2000/svg" xmlns:xlink="http://www.w3.org/1999/xlink">
    <!-- Generator: Sketch 59.1 (86144) - https://sketch.com -->
    <title>logo</title>
    <desc>Created with Sketch.</desc>
    <g id="Symbols" stroke="none" stroke-width="1" fill="none" fill-rule="evenodd">
        <g id="Header" transform="translate(-364.000000, -64.000000)" fill-rule="nonzero">
            <g id="logo" transform="translate(364.000000, 64.000000)">
                <path d="M139.975248,49.1626984 C142.706091,49.1626984 145,46.8547274 145,44.1071429 C145,41.3595583 142.706091,39.0515873 139.975248,39.0515873 C137.244404,39.0515873 134.950495,41.3595583 134.950495,44.1071429 C135.059729,46.9646308 137.244404,49.1626984 139.975248,49.1626984" id="Path" fill="#DC6625"></path>
                <g id="Group" transform="translate(0.000000, 0.051587)" fill="#6F7173">
                    <polygon id="Path" points="131.377902 39.621447 110.572505 39.621447 110.572505 0 100.754228 0 100.754228 49.6149871 131.377902 49.6149871"></polygon>
                    <polygon id="Path" points="87.4294226 0 81.5852098 24.4547804 75.2734601 0 67.5590993 0 61.2473495 24.4547804 55.4031368 0 45.3510909 0 57.3901691 49.6149871 65.1045299 49.6149871 71.4162797 23.2790698 77.8449137 49.6149871 85.5592745 49.6149871 97.5983528 0"></polygon>
                    <path d="M50.6108823,49.6149871 L38.4549198,0 L29.5717165,0 L29.5717165,0 L0,49.6149871 L11.454657,49.6149871 L17.415754,39.7390181 L28.5197582,39.7390181 C31.208096,39.7390181 33.4288969,37.505168 33.4288969,34.8010336 C33.4288969,32.0968992 31.208096,29.8630491 28.5197582,29.8630491 L23.376851,29.8630491 L32.0262858,14.4612403 L40.4419522,49.6149871 L50.6108823,49.6149871 Z" id="Path"></path>
                </g>
            </g>
        </g>
    </g>
</svg>